<!--?xml version="1.0" standalone="no"?-->
              <svg id="sw-js-blob-svg" viewBox="0 0 100 100" xmlns="http://www.w3.org/2000/svg" version="1.1">
                    <defs> 
                        <linearGradient id="sw-gradient" x1="0" x2="1" y1="1" y2="0">
                            <stop id="stop1" stop-color="rgba(248, 117, 55, 1)" offset="0%"></stop>
                            <stop id="stop2" stop-color="rgba(251, 168, 31, 1)" offset="100%"></stop>
                        </linearGradient>
                    </defs>
                <path fill="url(#sw-gradient)" d="M15.1,-29.8C18.2,-24.3,18.5,-17.6,23.5,-12.4C28.6,-7.2,38.5,-3.6,42.6,2.4C46.7,8.3,45,16.7,38.5,19.4C32,22.2,20.8,19.4,13.6,21C6.4,22.6,3.2,28.6,-1.7,31.5C-6.6,34.5,-13.1,34.3,-20.2,32.6C-27.4,30.9,-35,27.8,-37,22.1C-38.9,16.4,-35.1,8.2,-34.4,0.4C-33.8,-7.4,-36.2,-14.9,-33.8,-19.7C-31.3,-24.6,-24.1,-26.9,-17.7,-30.5C-11.2,-34.1,-5.6,-38.9,0.2,-39.2C6,-39.5,12,-35.3,15.1,-29.8Z" width="100%" height="100%" transform="translate(50 50)" stroke-width="0" style="transition: all 0.3s ease 0s;"></path>
              </svg>