<!--?xml version="1.0" standalone="no"?-->
              <svg id="sw-js-blob-svg" viewBox="0 0 100 100" xmlns="http://www.w3.org/2000/svg" version="1.1">
                    <defs> 
                        <linearGradient id="sw-gradient" x1="0" x2="1" y1="1" y2="0">
                            <stop id="stop1" stop-color="rgba(248, 117, 55, 1)" offset="0%"></stop>
                            <stop id="stop2" stop-color="rgba(251, 168, 31, 1)" offset="100%"></stop>
                        </linearGradient>
                    </defs>
                <path fill="url(#sw-gradient)" d="M26.1,-26.1C34.2,-24.3,41.5,-16.4,41.7,-8.3C42,-0.2,35.2,8.1,28.4,13C21.5,17.8,14.5,19.2,7.3,23.2C0.1,27.2,-7.3,33.8,-12.9,32.9C-18.4,32,-22.2,23.4,-22.8,16.2C-23.4,8.9,-21,2.8,-22,-6C-23,-14.8,-27.4,-26.4,-24.3,-29.1C-21.2,-31.8,-10.6,-25.6,-0.8,-24.7C9,-23.7,18,-27.9,26.1,-26.1Z" width="100%" height="100%" transform="translate(50 50)" stroke-width="0" style="transition: all 0.3s ease 0s;"></path>
              </svg>